<svg xmlns="http://www.w3.org/2000/svg" width="139" height="30" viewBox="0 0 139 30"><defs><radialGradient id="_1989062473__a" cx="0" cy="0" r="1" gradientTransform="matrix(.21 -.67353 .2545 .07935 .512 1.109)"><stop stop-color="#6420FF"/><stop offset="1" stop-color="#6420FF" stop-opacity="0"/></radialGradient><radialGradient id="_1989062473__b" cx="0" cy="0" r="1" gradientTransform="matrix(.584 .16215 -.3771 1.3582 .024 .666)"><stop offset=".25" stop-color="#00C4CC"/><stop offset="1" stop-color="#00C4CC" stop-opacity="0"/></radialGradient><radialGradient id="_1989062473__c" cx="0" cy="0" r="1" gradientTransform="matrix(.29425 -.739 .3555 .14155 .427 1)"><stop stop-color="#6420FF"/><stop offset="1" stop-color="#6420FF" stop-opacity="0"/></radialGradient><radialGradient id="_1989062473__d" cx="0" cy="0" r="1" gradientTransform="matrix(.3915 -.59869 .4743 .31016 .028 1)"><stop stop-color="#6420FF"/><stop offset="1" stop-color="#6420FF" stop-opacity="0"/></radialGradient><radialGradient id="_1989062473__e" cx="0" cy="0" r="1" gradientTransform="rotate(34.593 -.1 .2) scale(1.03255 2.80688)"><stop stop-color="#00C4CC"/><stop offset="1" stop-color="#00C4CC" stop-opacity="0"/></radialGradient><radialGradient id="_1989062473__f" cx="0" cy="0" r="1" gradientUnits="userSpaceOnUse" gradientTransform="matrix(.31395 -.50266 .31137 .19448 .562 .59)"><stop stop-color="#6420FF"/><stop offset="1" stop-color="#6420FF" stop-opacity="0"/></radialGradient><radialGradient id="_1989062473__g" cx="0" cy="0" r="1" gradientUnits="userSpaceOnUse" gradientTransform="matrix(.2868 -.57061 .398 .20004 .076 .795)"><stop stop-color="#6420FF"/><stop offset="1" stop-color="#6420FF" stop-opacity="0"/></radialGradient><pattern id="_1989062473__h" width="1" height="1" patternContentUnits="objectBoundingBox"><path fill="#7D2AE7" d="M0 0h1v1H0z"/><path fill="url(#_1989062473__a)" d="M0 0h1v1H0z"/><path fill="url(#_1989062473__b)" d="M0 0h1v1H0z"/><path fill="url(#_1989062473__c)" d="M0 0h1v1H0z"/><path fill="url(#_1989062473__d)" d="M0 0h1v1H0z"/><path fill="url(#_1989062473__e)" d="M0 0h1v1H0z"/></pattern><pattern id="_1989062473__i" width="1" height="1" patternContentUnits="objectBoundingBox"><path fill="#7D2AE7" d="M0 0h1v1H0z"/><path fill="url(#_1989062473__f)" d="M0 0h1v1H0z"/><path fill="url(#_1989062473__g)" d="M0 0h1v1H0z"/></pattern></defs><path fill="url(#_1989062473__h)" d="M79.444 18.096c-.136 0-.26.088-.324.272-.82 2.34-1.928 3.732-2.84 3.732-.524 0-.736-.584-.736-1.5 0-2.292 1.372-7.152 2.064-9.368.08-.268.132-.508.132-.712 0-.644-.352-.96-1.224-.96-.94 0-1.952.368-2.936 2.092-.34-1.52-1.368-2.184-2.804-2.184-1.66 0-3.264 1.068-4.584 2.8-1.32 1.732-2.872 2.3-4.04 2.02.84-2.056 1.152-3.592 1.152-4.732 0-1.788-.884-2.868-2.312-2.868-2.172 0-3.424 2.072-3.424 4.252 0 1.684.764 3.416 2.444 4.256-1.408 3.184-3.464 6.064-4.244 6.064-1.008 0-1.304-4.932-1.248-8.46.036-2.024.204-2.128.204-2.74 0-.352-.228-.592-1.144-.592-2.136 0-2.796 1.808-2.896 3.884a10.233 10.233 0 0 1-.368 2.332c-.892 3.184-2.732 5.6-3.932 5.6-.556 0-.708-.556-.708-1.284 0-2.292 1.284-5.156 1.284-7.6 0-1.796-.788-2.932-2.272-2.932-1.748 0-4.06 2.08-6.248 5.976.72-2.984 1.016-5.872-1.116-5.872A2.886 2.886 0 0 0 36 9.916a.752.752 0 0 0-.432.728c.204 3.176-2.56 11.312-5.18 11.312-.476 0-.708-.516-.708-1.348 0-2.296 1.368-7.144 2.056-9.364.088-.288.136-.536.136-.752 0-.608-.376-.92-1.228-.92-.936 0-1.952.356-2.932 2.08-.344-1.52-1.372-2.184-2.808-2.184-2.356 0-4.988 2.492-6.144 5.74-1.548 4.336-4.668 8.524-8.868 8.524-3.812 0-5.824-3.172-5.824-8.184C4.068 8.312 9.38 2.4 13.32 2.4c1.884 0 2.784 1.2 2.784 3.04 0 2.228-1.244 3.264-1.244 4.112 0 .26.216.516.644.516 1.712 0 3.728-2.012 3.728-4.756S17.004.56 13.064.56C6.552.56 0 7.112 0 15.508c0 6.68 3.296 10.708 8.996 10.708 3.888 0 7.284-3.024 9.116-6.552.208 2.924 1.536 4.452 3.56 4.452 1.8 0 3.256-1.072 4.368-2.956.428 1.972 1.564 2.936 3.04 2.936 1.692 0 3.108-1.072 4.456-3.064-.02 1.564.336 3.036 1.692 3.036.64 0 1.404-.148 1.54-.708 1.428-5.904 4.956-10.724 6.036-10.724.32 0 .408.308.408.672 0 1.604-1.132 4.892-1.132 6.992 0 2.268.964 3.768 2.956 3.768 2.208 0 4.452-2.704 5.948-6.656.468 3.692 1.48 6.672 3.064 6.672 1.944 0 5.396-4.092 7.488-8.424.82.104 2.052.076 3.236-.76-.504 1.276-.8 2.672-.8 4.068 0 4.02 1.92 5.148 3.572 5.148 1.796 0 3.252-1.072 4.368-2.956.368 1.7 1.308 2.932 3.036 2.932 2.704 0 5.052-2.764 5.052-5.032 0-.6-.256-.964-.556-.964zM23.32 21.888c-1.092 0-1.52-1.1-1.52-2.74 0-2.848 1.948-7.604 4.008-7.604.9 0 1.24 1.06 1.24 2.356 0 2.892-1.852 7.988-3.728 7.988zm37.404-8.5c-.652-.776-.888-1.832-.888-2.772 0-1.16.424-2.14.932-2.14s.664.5.664 1.196c0 1.164-.416 2.864-.708 3.716zm8.468 8.5c-1.092 0-1.52-1.264-1.52-2.74 0-2.748 1.948-7.604 4.024-7.604.9 0 1.22 1.052 1.22 2.356 0 2.892-1.82 7.988-3.724 7.988z"/><path fill="url(#_1989062473__i)" d="M90.4 7.4c-.5.7-1.7 2.8-1.6 6.1 0 4.5 6 6.2 9.5 2.1 3.6-4.2 1.7-8.4-1.6-8.6a6 6 0 0 0-4.9 2c.7-1.7-.8-2.6-1.4-1.6zm6 2c3.4 1.1 1.2 7-2.5 6.3-2.5-.3-3-2.2-2.8-4 .7-1.6 3.5-3 5.2-2.3zm12.7-6.7c-.8 0-3-.3-4.7-.3.7 1.5 2.2 5.4 2 11.2-.2 8-4.8 12.5-11 12.5-5.8 0-9-3.7-9.4-5-.4-1.3.5-1.3.9-.9.7.8 1.4 1.5 2.7 2.2 4.6 2 12.8 1 13.6-7 .8-6.8-1.2-11.5-2-13a47 47 0 0 0-14.1 2.7c-2.5 1-2.9-.6-2.9-1.3A2 2 0 0 1 85.8 2c10-2.7 21-1 22.5-.8 1.6.3 1.5 1.5.7 1.5zm6.8 1.8a54 54 0 0 1 6.5-1.7c-3.4 2.4-8 9-4.5 14.2 4 6 15.3 3.5 15.6-4.2.2-7.5-8.7-8-11-3.8-2 3.5.8 5.8 2.4 5.9.3.6.6 1 .9 1 .5-.1.4-.6.2-1.2.5-.2 2.1-1 2.5-2.7.4-2-2.2-2.8-3.4-.3a4.5 4.5 0 0 0-.4 1.8c-3-1-.6-6.5 4.1-4.5 4.3 1.7 1.5 10.2-5.8 8-7-2.3-1.6-14 4.7-15 2.3 0 5 .1 6.8.4 1.6.2 1.6-1.1.6-1.4-3-1-13.4-1.6-19.5.4-1 .3-1.7 1-1.8 2 0 1 .9 1.5 2 1.1zM127 11c1.1 0 .2 2-1.2 2.5 0-1 .4-2.6 1.2-2.5zm11.9 10.1a11.8 11.8 0 0 1-1.4-1.5 8.8 8.8 0 0 0 1.2-5c-.4-3-3.4-2.7-3.6.8a9.7 9.7 0 0 0 .4 3.6 13.4 13.4 0 0 1-10.7 4.5c-4.7-.1-9.4-1.8-11.8-5.8-.6-1-1.4-1-1.4 0 0 1.8 4.1 8.6 13 8.8 6.2.1 10-2.5 12-5.5.4.5 1 .9 1.4 1.2 1 .6 1.5-.5.9-1zm-2-7.5c.6 0 .8 1.8-.4 4l-.1-.2c-.5-1.6-.3-3.9.4-3.9z"/></svg>